<?xml version="1.0" encoding="UTF-8" standalone="no"?>
<!DOCTYPE svg PUBLIC "-//W3C//DTD SVG 1.1//EN"
 "http://www.w3.org/Graphics/SVG/1.1/DTD/svg11.dtd">
<!-- Generated by graphviz version 14.1.4 (20260321.0153)
 -->
<!-- Title: tm Pages: 1 -->
<svg width="1082pt" height="1056pt"
 viewBox="0.00 0.00 1082.00 1056.00" xmlns="http://www.w3.org/2000/svg" xmlns:xlink="http://www.w3.org/1999/xlink">
<g id="graph0" class="graph" transform="scale(1 1) rotate(0) translate(4 1052.13)">
<title>tm</title>
<polygon fill="white" stroke="none" points="-4,4 -4,-1052.13 1078,-1052.13 1078,4 -4,4"/>
<g id="clust1" class="cluster">
<title>cluster_boundary_TrustBoundaryAInternetApplication_acf3059e70</title>
<polygon fill="none" stroke="#ee2c2c" stroke-dasharray="5,2" points="8,-373.48 8,-1040.13 535,-1040.13 535,-373.48 8,-373.48"/>
<text xml:space="preserve" text-anchor="start" x="178.5" y="-1027.63" font-family="Arial" font-style="italic" font-size="10.00">Trust Boundary A ù\nInternet /\nApplication</text>
</g>
<g id="clust2" class="cluster">
<title>cluster_boundary_TrustBoundaryBApplicationInfrastructure_88f2d9c06f</title>
<polygon fill="none" stroke="#ee2c2c" stroke-dasharray="5,2" points="543,-8 543,-556.74 1065,-556.74 1065,-8 543,-8"/>
<text xml:space="preserve" text-anchor="start" x="697.88" y="-544.24" font-family="Arial" font-style="italic" font-size="10.00">Trust Boundary B ù\nApplication /\nInfrastructure</text>
</g>
<g id="clust3" class="cluster">
<title>cluster_boundary_TrustBoundaryCApplicationExternalLogSystem_579e9aae81</title>
<polygon fill="none" stroke="#ee2c2c" stroke-dasharray="5,2" points="547,-618.08 547,-743.96 815,-743.96 815,-618.08 547,-618.08"/>
<text xml:space="preserve" text-anchor="start" x="555" y="-731.46" font-family="Arial" font-style="italic" font-size="10.00">Trust Boundary C ù\nApplication /\nExternal Log\nSystem</text>
</g>
<!-- actor_UserBrowserApp_f2eb7a3ff7 -->
<g id="node1" class="node">
<title>actor_UserBrowserApp_f2eb7a3ff7</title>
<polygon fill="none" stroke="black" points="296.31,-996.36 199.69,-996.36 199.69,-899.73 296.31,-899.73 296.31,-996.36"/>
<text xml:space="preserve" text-anchor="middle" x="248" y="-950.49" font-family="Arial" font-size="14.00">User (Browser /</text>
<text xml:space="preserve" text-anchor="middle" x="248" y="-934.74" font-family="Arial" font-size="14.00">App)</text>
</g>
<!-- server_PInputValidation_f8af758679 -->
<g id="node2" class="node">
<title>server_PInputValidation_f8af758679</title>
<ellipse fill="none" stroke="black" cx="295" cy="-671.02" rx="45.52" ry="45.52"/>
<text xml:space="preserve" text-anchor="middle" x="295" y="-673.47" font-family="Arial" font-size="14.00">P2.1 Input</text>
<text xml:space="preserve" text-anchor="middle" x="295" y="-657.72" font-family="Arial" font-size="14.00">Validation</text>
</g>
<!-- actor_UserBrowserApp_f2eb7a3ff7&#45;&gt;server_PInputValidation_f8af758679 -->
<g id="edge1" class="edge">
<title>actor_UserBrowserApp_f2eb7a3ff7&#45;&gt;server_PInputValidation_f8af758679</title>
<path fill="none" stroke="black" d="M234.87,-899.24C226.12,-858.93 218.89,-800.26 235,-751.96 239.59,-738.19 247.59,-724.88 256.27,-713.21"/>
<polygon fill="black" stroke="black" points="258.98,-715.43 262.4,-705.41 253.47,-711.11 258.98,-715.43"/>
<text xml:space="preserve" text-anchor="middle" x="284.5" y="-826.06" font-family="Arial" font-size="12.00">(1) DF&#45;L2&#45;01: Raw</text>
<text xml:space="preserve" text-anchor="middle" x="284.5" y="-811.81" font-family="Arial" font-size="12.00">Upload Request</text>
<text xml:space="preserve" text-anchor="middle" x="284.5" y="-797.56" font-family="Arial" font-size="12.00">(multipart/form&#45;</text>
<text xml:space="preserve" text-anchor="middle" x="284.5" y="-783.31" font-family="Arial" font-size="12.00">data)</text>
</g>
<!-- actor_UserBrowserApp_f2eb7a3ff7&#45;&gt;server_PInputValidation_f8af758679 -->
<g id="edge10" class="edge">
<title>actor_UserBrowserApp_f2eb7a3ff7&#45;&gt;server_PInputValidation_f8af758679</title>
<path fill="none" stroke="black" d="M305.89,-914.05C322.62,-901.35 338.83,-885.19 348,-865.96 369.8,-820.22 362.62,-800.47 348,-751.96 344.21,-739.38 337.72,-726.96 330.56,-715.8"/>
<polygon fill="none" stroke="black" points="303.88,-911.18 297.81,-919.86 307.97,-916.86 303.88,-911.18"/>
<polygon fill="black" stroke="black" points="333.5,-713.9 324.99,-707.6 327.71,-717.84 333.5,-713.9"/>
<text xml:space="preserve" text-anchor="middle" x="413.16" y="-854.56" font-family="Arial" font-size="12.00">(11) DF&#45;L2&#45;11:</text>
<text xml:space="preserve" text-anchor="middle" x="413.16" y="-840.31" font-family="Arial" font-size="12.00">Download Request</text>
<text xml:space="preserve" text-anchor="middle" x="413.16" y="-826.06" font-family="Arial" font-size="12.00">(GET</text>
<text xml:space="preserve" text-anchor="middle" x="413.16" y="-811.81" font-family="Arial" font-size="12.00">/files/{fileId})</text>
<text xml:space="preserve" text-anchor="middle" x="413.16" y="-797.56" font-family="Arial" font-size="12.00"> &#160;&#160;&#160;(15) DF&#45;L2&#45;15:</text>
<text xml:space="preserve" text-anchor="middle" x="413.16" y="-783.31" font-family="Arial" font-size="12.00">File Download</text>
<text xml:space="preserve" text-anchor="middle" x="413.16" y="-769.06" font-family="Arial" font-size="12.00">Response</text>
<text xml:space="preserve" text-anchor="middle" x="413.16" y="-754.81" font-family="Arial" font-size="12.00">(attachment)</text>
</g>
<!-- actor_UserBrowserApp_f2eb7a3ff7&#45;&gt;server_PInputValidation_f8af758679 -->
<g id="edge13" class="edge">
<title>actor_UserBrowserApp_f2eb7a3ff7&#45;&gt;server_PInputValidation_f8af758679</title>
<path fill="none" stroke="black" d="M199.24,-929C171.73,-916.01 139.76,-895.52 123.75,-865.96 99.62,-821.4 96.54,-794.69 123.75,-751.96 148.91,-712.45 199.25,-692.15 238.88,-681.91"/>
<polygon fill="black" stroke="black" points="239.63,-685.33 248.53,-679.58 237.99,-678.53 239.63,-685.33"/>
<text xml:space="preserve" text-anchor="middle" x="165.38" y="-826.06" font-family="Arial" font-size="12.00">(16) DF&#45;L2&#45;16:</text>
<text xml:space="preserve" text-anchor="middle" x="165.38" y="-811.81" font-family="Arial" font-size="12.00">Delete Request</text>
<text xml:space="preserve" text-anchor="middle" x="165.38" y="-797.56" font-family="Arial" font-size="12.00">(DELETE</text>
<text xml:space="preserve" text-anchor="middle" x="165.38" y="-783.31" font-family="Arial" font-size="12.00">/files/{fileId})</text>
</g>
<!-- server_PAuthorisationCheckRBAC_2c440ebe53 -->
<g id="node3" class="node">
<title>server_PAuthorisationCheckRBAC_2c440ebe53</title>
<ellipse fill="none" stroke="black" cx="442" cy="-460.95" rx="79.46" ry="79.46"/>
<text xml:space="preserve" text-anchor="middle" x="442" y="-463.4" font-family="Arial" font-size="14.00">P2.2 Authorisation</text>
<text xml:space="preserve" text-anchor="middle" x="442" y="-447.65" font-family="Arial" font-size="14.00">Check (RBAC)</text>
</g>
<!-- server_PInputValidation_f8af758679&#45;&gt;server_PAuthorisationCheckRBAC_2c440ebe53 -->
<g id="edge2" class="edge">
<title>server_PInputValidation_f8af758679&#45;&gt;server_PAuthorisationCheckRBAC_2c440ebe53</title>
<path fill="none" stroke="black" d="M320.94,-633.3C340,-606.32 366.54,-568.75 389.92,-535.67"/>
<polygon fill="black" stroke="black" points="392.63,-537.89 395.54,-527.7 386.91,-533.85 392.63,-537.89"/>
<text xml:space="preserve" text-anchor="middle" x="414.25" y="-596.09" font-family="Arial" font-size="12.00">(2) DF&#45;L2&#45;02:</text>
<text xml:space="preserve" text-anchor="middle" x="414.25" y="-581.84" font-family="Arial" font-size="12.00">Validated Upload</text>
<text xml:space="preserve" text-anchor="middle" x="414.25" y="-567.59" font-family="Arial" font-size="12.00">Request</text>
</g>
<!-- server_PFileStoreJavaNIOOSIO_0291419f72 -->
<g id="node5" class="node">
<title>server_PFileStoreJavaNIOOSIO_0291419f72</title>
<ellipse fill="none" stroke="black" cx="778" cy="-460.95" rx="67.8" ry="67.8"/>
<text xml:space="preserve" text-anchor="middle" x="778" y="-471.27" font-family="Arial" font-size="14.00">P2.3 File Store</text>
<text xml:space="preserve" text-anchor="middle" x="778" y="-455.52" font-family="Arial" font-size="14.00">(Java NIO / OS</text>
<text xml:space="preserve" text-anchor="middle" x="778" y="-439.77" font-family="Arial" font-size="14.00">I/O)</text>
</g>
<!-- server_PAuthorisationCheckRBAC_2c440ebe53&#45;&gt;server_PFileStoreJavaNIOOSIO_0291419f72 -->
<g id="edge4" class="edge">
<title>server_PAuthorisationCheckRBAC_2c440ebe53&#45;&gt;server_PFileStoreJavaNIOOSIO_0291419f72</title>
<path fill="none" stroke="black" d="M521.63,-460.95C574.96,-460.95 644.91,-460.95 698.27,-460.95"/>
<polygon fill="black" stroke="black" points="698.22,-464.45 708.22,-460.95 698.22,-457.45 698.22,-464.45"/>
<text xml:space="preserve" text-anchor="middle" x="615.83" y="-495.3" font-family="Arial" font-size="12.00">(5) DF&#45;L2&#45;05:</text>
<text xml:space="preserve" text-anchor="middle" x="615.83" y="-481.05" font-family="Arial" font-size="12.00">Authorised Upload</text>
<text xml:space="preserve" text-anchor="middle" x="615.83" y="-466.8" font-family="Arial" font-size="12.00">ù File Bytes</text>
</g>
<!-- server_PMetadataStoreJDBCPostgreSQL_c76a0a7067 -->
<g id="node6" class="node">
<title>server_PMetadataStoreJDBCPostgreSQL_c76a0a7067</title>
<ellipse fill="none" stroke="black" cx="623" cy="-195.37" rx="64.62" ry="64.62"/>
<text xml:space="preserve" text-anchor="middle" x="623" y="-205.69" font-family="Arial" font-size="14.00">P2.4 Metadata</text>
<text xml:space="preserve" text-anchor="middle" x="623" y="-189.94" font-family="Arial" font-size="14.00">Store (JDBC /</text>
<text xml:space="preserve" text-anchor="middle" x="623" y="-174.19" font-family="Arial" font-size="14.00">PostgreSQL)</text>
</g>
<!-- server_PAuthorisationCheckRBAC_2c440ebe53&#45;&gt;server_PMetadataStoreJDBCPostgreSQL_c76a0a7067 -->
<g id="edge11" class="edge">
<title>server_PAuthorisationCheckRBAC_2c440ebe53&#45;&gt;server_PMetadataStoreJDBCPostgreSQL_c76a0a7067</title>
<path fill="none" stroke="black" d="M455.13,-382.42C463.85,-347.91 478.07,-308.31 501,-277.98 515.33,-259.03 535.41,-243.05 555.14,-230.4"/>
<polygon fill="black" stroke="black" points="556.81,-233.48 563.49,-225.26 553.14,-227.53 556.81,-233.48"/>
<text xml:space="preserve" text-anchor="middle" x="540" y="-337.83" font-family="Arial" font-size="12.00">(12) DF&#45;L2&#45;12:</text>
<text xml:space="preserve" text-anchor="middle" x="540" y="-323.58" font-family="Arial" font-size="12.00">Request</text>
<text xml:space="preserve" text-anchor="middle" x="540" y="-309.33" font-family="Arial" font-size="12.00">FileVersion +</text>
<text xml:space="preserve" text-anchor="middle" x="540" y="-295.08" font-family="Arial" font-size="12.00">AccessShare</text>
</g>
<!-- datastore_PostgreSQLDatabase_9345ab4c19 -->
<g id="node7" class="node">
<title>datastore_PostgreSQLDatabase_9345ab4c19</title>
<image xlink:href="C:\Users\pconceicao\AppData\Local\Programs\Python\Python314\Lib\site-packages\pytm\images\datastore_black.png" width="49.6px" height="36px" preserveAspectRatio="xMinYMin meet" x="575.2" y="-52"/>
<text xml:space="preserve" text-anchor="middle" x="535.88" y="-70.2" font-family="Arial" font-size="14.00">PostgreSQL</text>
<text xml:space="preserve" text-anchor="middle" x="535.88" y="-54.45" font-family="Arial" font-size="14.00">Database</text>
</g>
<!-- server_PAuthorisationCheckRBAC_2c440ebe53&#45;&gt;datastore_PostgreSQLDatabase_9345ab4c19 -->
<g id="edge3" class="edge">
<title>server_PAuthorisationCheckRBAC_2c440ebe53&#45;&gt;datastore_PostgreSQLDatabase_9345ab4c19</title>
<path fill="none" stroke="black" d="M406.72,-377.13C382.51,-306.44 362.21,-204.76 408,-130.75 441.63,-76.41 516.42,-51.9 562.09,-41.64"/>
<polygon fill="none" stroke="black" points="403.34,-378.07 409.97,-386.34 409.94,-375.75 403.34,-378.07"/>
<polygon fill="black" stroke="black" points="562.77,-45.08 571.83,-39.59 561.32,-38.23 562.77,-45.08"/>
<text xml:space="preserve" text-anchor="middle" x="465" y="-226.72" font-family="Arial" font-size="12.00">(3) DF&#45;L2&#45;03:</text>
<text xml:space="preserve" text-anchor="middle" x="465" y="-212.47" font-family="Arial" font-size="12.00">AccessShare Lookup</text>
<text xml:space="preserve" text-anchor="middle" x="465" y="-198.22" font-family="Arial" font-size="12.00">(JDBC)</text>
<text xml:space="preserve" text-anchor="middle" x="465" y="-183.97" font-family="Arial" font-size="12.00"> &#160;&#160;&#160;(4) DF&#45;L2&#45;04:</text>
<text xml:space="preserve" text-anchor="middle" x="465" y="-169.72" font-family="Arial" font-size="12.00">AccessShare Result</text>
<text xml:space="preserve" text-anchor="middle" x="465" y="-155.47" font-family="Arial" font-size="12.00">(JDBC)</text>
</g>
<!-- server_PAuditLogService_c6f87088c2 -->
<g id="node4" class="node">
<title>server_PAuditLogService_c6f87088c2</title>
<ellipse fill="none" stroke="black" cx="463" cy="-948.04" rx="64.09" ry="64.09"/>
<text xml:space="preserve" text-anchor="middle" x="463" y="-950.49" font-family="Arial" font-size="14.00">P2.5 Audit Log</text>
<text xml:space="preserve" text-anchor="middle" x="463" y="-934.74" font-family="Arial" font-size="14.00">Service</text>
</g>
<!-- actor_ExternalLogSystemELKSIEM_d2006ce1bb -->
<g id="node9" class="node">
<title>actor_ExternalLogSystemELKSIEM_d2006ce1bb</title>
<polygon fill="none" stroke="black" points="648.94,-715.96 559.06,-715.96 559.06,-626.08 648.94,-626.08 648.94,-715.96"/>
<text xml:space="preserve" text-anchor="middle" x="604" y="-681.34" font-family="Arial" font-size="14.00">External Log</text>
<text xml:space="preserve" text-anchor="middle" x="604" y="-665.59" font-family="Arial" font-size="14.00">System (ELK /</text>
<text xml:space="preserve" text-anchor="middle" x="604" y="-649.84" font-family="Arial" font-size="14.00">SIEM)</text>
</g>
<!-- server_PAuditLogService_c6f87088c2&#45;&gt;actor_ExternalLogSystemELKSIEM_d2006ce1bb -->
<g id="edge9" class="edge">
<title>server_PAuditLogService_c6f87088c2&#45;&gt;actor_ExternalLogSystemELKSIEM_d2006ce1bb</title>
<path fill="none" stroke="black" d="M492.04,-890.39C516.68,-842.34 551.79,-773.86 576.09,-726.45"/>
<polygon fill="black" stroke="black" points="579.12,-728.21 580.57,-717.72 572.89,-725.02 579.12,-728.21"/>
<text xml:space="preserve" text-anchor="middle" x="610.71" y="-818.93" font-family="Arial" font-size="12.00">(10) DF&#45;L2&#45;10:</text>
<text xml:space="preserve" text-anchor="middle" x="610.71" y="-804.68" font-family="Arial" font-size="12.00">Structured Audit</text>
<text xml:space="preserve" text-anchor="middle" x="610.71" y="-790.43" font-family="Arial" font-size="12.00">Log (HTTPS/TLS)</text>
</g>
<!-- server_PFileStoreJavaNIOOSIO_0291419f72&#45;&gt;server_PMetadataStoreJDBCPostgreSQL_c76a0a7067 -->
<g id="edge6" class="edge">
<title>server_PFileStoreJavaNIOOSIO_0291419f72&#45;&gt;server_PMetadataStoreJDBCPostgreSQL_c76a0a7067</title>
<path fill="none" stroke="black" d="M712.93,-440.63C675.85,-425.91 632.5,-401.54 610.5,-363.48 594.1,-335.1 594.55,-299.34 600.2,-268.18"/>
<polygon fill="black" stroke="black" points="603.63,-268.91 602.2,-258.41 596.77,-267.51 603.63,-268.91"/>
<text xml:space="preserve" text-anchor="middle" x="657.75" y="-330.71" font-family="Arial" font-size="12.00">(7) DF&#45;L2&#45;07: File</text>
<text xml:space="preserve" text-anchor="middle" x="657.75" y="-316.46" font-family="Arial" font-size="12.00">Metadata +</text>
<text xml:space="preserve" text-anchor="middle" x="657.75" y="-302.21" font-family="Arial" font-size="12.00">FileHash</text>
</g>
<!-- datastore_PhysicalFileSystemsrvfiles_86e4604564 -->
<g id="node8" class="node">
<title>datastore_PhysicalFileSystemsrvfiles_86e4604564</title>
<image xlink:href="C:\Users\pconceicao\AppData\Local\Programs\Python\Python314\Lib\site-packages\pytm\images\datastore_black.png" width="49.6px" height="36px" preserveAspectRatio="xMinYMin meet" x="942.2" y="-213.365"/>
<text xml:space="preserve" text-anchor="middle" x="902.12" y="-247.32" font-family="Arial" font-size="14.00">Physical File</text>
<text xml:space="preserve" text-anchor="middle" x="902.12" y="-231.57" font-family="Arial" font-size="14.00">System</text>
<text xml:space="preserve" text-anchor="middle" x="902.12" y="-215.82" font-family="Arial" font-size="14.00">(/srv/files/)</text>
</g>
<!-- server_PFileStoreJavaNIOOSIO_0291419f72&#45;&gt;datastore_PhysicalFileSystemsrvfiles_86e4604564 -->
<g id="edge5" class="edge">
<title>server_PFileStoreJavaNIOOSIO_0291419f72&#45;&gt;datastore_PhysicalFileSystemsrvfiles_86e4604564</title>
<path fill="none" stroke="black" d="M834.63,-405.85C847.26,-392.55 860.12,-377.96 871,-363.48 905.64,-317.37 937.15,-257.6 954.04,-223.47"/>
<polygon fill="none" stroke="black" points="832.29,-403.24 827.86,-412.86 837.33,-408.1 832.29,-403.24"/>
<polygon fill="black" stroke="black" points="957.08,-225.21 958.33,-214.69 950.8,-222.14 957.08,-225.21"/>
<text xml:space="preserve" text-anchor="middle" x="969.6" y="-352.08" font-family="Arial" font-size="12.00">(6) DF&#45;L2&#45;06:</text>
<text xml:space="preserve" text-anchor="middle" x="969.6" y="-337.83" font-family="Arial" font-size="12.00">Write Binary File</text>
<text xml:space="preserve" text-anchor="middle" x="969.6" y="-323.58" font-family="Arial" font-size="12.00">(Java NIO)</text>
<text xml:space="preserve" text-anchor="middle" x="969.6" y="-309.33" font-family="Arial" font-size="12.00"> &#160;&#160;&#160;(14) DF&#45;L2&#45;14:</text>
<text xml:space="preserve" text-anchor="middle" x="969.6" y="-295.08" font-family="Arial" font-size="12.00">Read Binary File</text>
<text xml:space="preserve" text-anchor="middle" x="969.6" y="-280.83" font-family="Arial" font-size="12.00">(Java NIO)</text>
</g>
<!-- server_PMetadataStoreJDBCPostgreSQL_c76a0a7067&#45;&gt;server_PAuditLogService_c6f87088c2 -->
<g id="edge8" class="edge">
<title>server_PMetadataStoreJDBCPostgreSQL_c76a0a7067&#45;&gt;server_PAuditLogService_c6f87088c2</title>
<path fill="none" stroke="black" d="M685.74,-212.16C742.49,-226.06 828.47,-246.19 904,-259.98 932.47,-265.18 1014,-256.15 1033,-277.98 1057.94,-306.65 1042.11,-326.59 1033,-363.48 967.42,-629.2 915.47,-731.64 677,-865.96 632.26,-891.16 578.15,-911.58 535.53,-925.63"/>
<polygon fill="black" stroke="black" points="534.55,-922.26 526.11,-928.68 536.71,-928.92 534.55,-922.26"/>
<text xml:space="preserve" text-anchor="middle" x="1022.25" y="-588.97" font-family="Arial" font-size="12.00">(9) DF&#45;L2&#45;09:</text>
<text xml:space="preserve" text-anchor="middle" x="1022.25" y="-574.72" font-family="Arial" font-size="12.00">Upload Audit Event</text>
</g>
<!-- server_PMetadataStoreJDBCPostgreSQL_c76a0a7067&#45;&gt;server_PFileStoreJavaNIOOSIO_0291419f72 -->
<g id="edge12" class="edge">
<title>server_PMetadataStoreJDBCPostgreSQL_c76a0a7067&#45;&gt;server_PFileStoreJavaNIOOSIO_0291419f72</title>
<path fill="none" stroke="black" d="M675.93,-232.52C691.58,-245.35 707.56,-260.89 719,-277.98 740.09,-309.48 754.1,-349.07 763.15,-383.27"/>
<polygon fill="black" stroke="black" points="759.69,-383.87 765.55,-392.7 766.48,-382.14 759.69,-383.87"/>
<text xml:space="preserve" text-anchor="middle" x="804.98" y="-330.71" font-family="Arial" font-size="12.00">(13) DF&#45;L2&#45;13:</text>
<text xml:space="preserve" text-anchor="middle" x="804.98" y="-316.46" font-family="Arial" font-size="12.00">PhysicalOsPath +</text>
<text xml:space="preserve" text-anchor="middle" x="804.98" y="-302.21" font-family="Arial" font-size="12.00">FileHash</text>
</g>
<!-- server_PMetadataStoreJDBCPostgreSQL_c76a0a7067&#45;&gt;datastore_PostgreSQLDatabase_9345ab4c19 -->
<g id="edge7" class="edge">
<title>server_PMetadataStoreJDBCPostgreSQL_c76a0a7067&#45;&gt;datastore_PostgreSQLDatabase_9345ab4c19</title>
<path fill="none" stroke="black" d="M613.84,-130.92C610.45,-107.42 606.78,-81.96 604.07,-63.18"/>
<polygon fill="black" stroke="black" points="607.55,-62.78 602.65,-53.38 600.62,-63.78 607.55,-62.78"/>
<text xml:space="preserve" text-anchor="middle" x="662.56" y="-101.35" font-family="Arial" font-size="12.00">(8) DF&#45;L2&#45;08:</text>
<text xml:space="preserve" text-anchor="middle" x="662.56" y="-87.1" font-family="Arial" font-size="12.00">INSERT File +</text>
<text xml:space="preserve" text-anchor="middle" x="662.56" y="-72.85" font-family="Arial" font-size="12.00">FileVersion (JDBC)</text>
</g>
</g>
</svg>
