<?xml version="1.0" encoding="UTF-8" standalone="no"?>
<!DOCTYPE svg PUBLIC "-//W3C//DTD SVG 1.1//EN"
 "http://www.w3.org/Graphics/SVG/1.1/DTD/svg11.dtd">
<!-- Generated by graphviz version 14.1.4 (20260321.0153)
 -->
<!-- Title: tm Pages: 1 -->
<svg width="1328pt" height="597pt"
 viewBox="0.00 0.00 1328.00 597.00" xmlns="http://www.w3.org/2000/svg" xmlns:xlink="http://www.w3.org/1999/xlink">
<g id="graph0" class="graph" transform="scale(1 1) rotate(0) translate(4 593.03)">
<title>tm</title>
<polygon fill="white" stroke="none" points="-4,4 -4,-593.03 1324,-593.03 1324,4 -4,4"/>
<g id="clust1" class="cluster">
<title>cluster_boundary_TrustBoundaryAInternetApplication_acf3059e70</title>
<polygon fill="none" stroke="#ee2c2c" stroke-dasharray="5,2" points="8,-237.38 8,-581.03 1054,-581.03 1054,-237.38 8,-237.38"/>
<text xml:space="preserve" text-anchor="start" x="438" y="-568.53" font-family="Arial" font-style="italic" font-size="10.00">Trust Boundary A ù\nInternet /\nApplication</text>
</g>
<g id="clust2" class="cluster">
<title>cluster_boundary_TrustBoundaryAInternetApplicationAdmin_88f2d9c06f</title>
<polygon fill="none" stroke="#ee2c2c" stroke-dasharray="5,2" points="1068,-455.15 1068,-574.28 1312,-574.28 1312,-455.15 1068,-455.15"/>
<text xml:space="preserve" text-anchor="start" x="1076" y="-561.78" font-family="Arial" font-style="italic" font-size="10.00">Trust Boundary A ù\nInternet /\nApplication\n(Admin)</text>
</g>
<g id="clust3" class="cluster">
<title>cluster_boundary_TrustBoundaryBApplicationInfrastructure_579e9aae81</title>
<polygon fill="none" stroke="#ee2c2c" stroke-dasharray="5,2" points="403,-34.94 403,-106.94 631,-106.94 631,-34.94 403,-34.94"/>
<text xml:space="preserve" text-anchor="start" x="410.88" y="-94.44" font-family="Arial" font-style="italic" font-size="10.00">Trust Boundary B ù\nApplication /\nInfrastructure</text>
</g>
<g id="clust4" class="cluster">
<title>cluster_boundary_TrustBoundaryCApplicationExternalLogSystem_f2eb7a3ff7</title>
<polygon fill="none" stroke="#ee2c2c" stroke-dasharray="5,2" points="682,-8 682,-133.88 950,-133.88 950,-8 682,-8"/>
<text xml:space="preserve" text-anchor="start" x="690" y="-121.38" font-family="Arial" font-style="italic" font-size="10.00">Trust Boundary C ù\nApplication /\nExternal Log\nSystem</text>
</g>
<!-- actor_UserBrowserApp_d2006ce1bb -->
<g id="node1" class="node">
<title>actor_UserBrowserApp_d2006ce1bb</title>
<polygon fill="none" stroke="black" points="566.32,-553.03 469.69,-553.03 469.69,-456.4 566.32,-456.4 566.32,-553.03"/>
<text xml:space="preserve" text-anchor="middle" x="518" y="-507.17" font-family="Arial" font-size="14.00">User (Browser /</text>
<text xml:space="preserve" text-anchor="middle" x="518" y="-491.42" font-family="Arial" font-size="14.00">App)</text>
</g>
<!-- server_SpringBootApplication_0291419f72 -->
<g id="node2" class="node">
<title>server_SpringBootApplication_0291419f72</title>
<ellipse fill="none" stroke="black" cx="613" cy="-297.27" rx="51.89" ry="51.89"/>
<text xml:space="preserve" text-anchor="middle" x="613" y="-299.72" font-family="Arial" font-size="14.00">Spring Boot</text>
<text xml:space="preserve" text-anchor="middle" x="613" y="-283.97" font-family="Arial" font-size="14.00">Application</text>
</g>
<!-- actor_UserBrowserApp_d2006ce1bb&#45;&gt;server_SpringBootApplication_0291419f72 -->
<g id="edge1" class="edge">
<title>actor_UserBrowserApp_d2006ce1bb&#45;&gt;server_SpringBootApplication_0291419f72</title>
<path fill="none" stroke="black" d="M458.18,-504.36C313.93,-503.98 -33.41,-490.62 75.25,-367.15 106.18,-332.01 413.82,-309.89 549.4,-301.77"/>
<polygon fill="none" stroke="black" points="457.93,-507.86 467.93,-504.36 457.93,-500.86 457.93,-507.86"/>
<polygon fill="black" stroke="black" points="549.51,-305.27 559.29,-301.19 549.1,-298.28 549.51,-305.27"/>
<text xml:space="preserve" text-anchor="middle" x="122.12" y="-427" font-family="Arial" font-size="12.00">(1) DF&#45;01:</text>
<text xml:space="preserve" text-anchor="middle" x="122.12" y="-412.75" font-family="Arial" font-size="12.00">Authentication</text>
<text xml:space="preserve" text-anchor="middle" x="122.12" y="-398.5" font-family="Arial" font-size="12.00">Request</text>
<text xml:space="preserve" text-anchor="middle" x="122.12" y="-384.25" font-family="Arial" font-size="12.00"> &#160;&#160;&#160;(2) DF&#45;02: JWT</text>
<text xml:space="preserve" text-anchor="middle" x="122.12" y="-370" font-family="Arial" font-size="12.00">Token Response</text>
</g>
<!-- actor_UserBrowserApp_d2006ce1bb&#45;&gt;server_SpringBootApplication_0291419f72 -->
<g id="edge2" class="edge">
<title>actor_UserBrowserApp_d2006ce1bb&#45;&gt;server_SpringBootApplication_0291419f72</title>
<path fill="none" stroke="black" d="M469.23,-499.14C398.6,-491.38 273.28,-473.02 246,-438.4 226.4,-413.54 225.78,-391.52 246,-367.15 283.85,-321.54 454.9,-305.94 549.53,-300.75"/>
<polygon fill="black" stroke="black" points="549.65,-304.25 559.45,-300.24 549.28,-297.26 549.65,-304.25"/>
<text xml:space="preserve" text-anchor="middle" x="289.5" y="-405.63" font-family="Arial" font-size="12.00">(3) DF&#45;03: File</text>
<text xml:space="preserve" text-anchor="middle" x="289.5" y="-391.38" font-family="Arial" font-size="12.00">Upload Request</text>
</g>
<!-- actor_UserBrowserApp_d2006ce1bb&#45;&gt;server_SpringBootApplication_0291419f72 -->
<g id="edge3" class="edge">
<title>actor_UserBrowserApp_d2006ce1bb&#45;&gt;server_SpringBootApplication_0291419f72</title>
<path fill="none" stroke="black" d="M459.08,-481.86C440.12,-471.69 421.25,-457.52 410.5,-438.4 394.97,-410.81 392.06,-392.9 410.5,-367.15 441.86,-323.36 502.69,-307.08 549.52,-301.19"/>
<polygon fill="none" stroke="black" points="457.4,-484.93 467.9,-486.28 460.53,-478.67 457.4,-484.93"/>
<polygon fill="black" stroke="black" points="549.74,-304.69 559.3,-300.11 548.97,-297.73 549.74,-304.69"/>
<text xml:space="preserve" text-anchor="middle" x="466.75" y="-419.88" font-family="Arial" font-size="12.00">(4) DF&#45;04: File</text>
<text xml:space="preserve" text-anchor="middle" x="466.75" y="-405.63" font-family="Arial" font-size="12.00">Download Request</text>
<text xml:space="preserve" text-anchor="middle" x="466.75" y="-391.38" font-family="Arial" font-size="12.00"> &#160;&#160;&#160;(5) DF&#45;05: File</text>
<text xml:space="preserve" text-anchor="middle" x="466.75" y="-377.13" font-family="Arial" font-size="12.00">Download Response</text>
</g>
<!-- actor_UserBrowserApp_d2006ce1bb&#45;&gt;server_SpringBootApplication_0291419f72 -->
<g id="edge4" class="edge">
<title>actor_UserBrowserApp_d2006ce1bb&#45;&gt;server_SpringBootApplication_0291419f72</title>
<path fill="none" stroke="black" d="M540.03,-456.07C553.92,-426.04 571.93,-387.08 586.58,-355.4"/>
<polygon fill="black" stroke="black" points="589.76,-356.87 590.78,-346.33 583.4,-353.93 589.76,-356.87"/>
<text xml:space="preserve" text-anchor="middle" x="621.18" y="-405.63" font-family="Arial" font-size="12.00">(6) DF&#45;06: File</text>
<text xml:space="preserve" text-anchor="middle" x="621.18" y="-391.38" font-family="Arial" font-size="12.00">Delete Request</text>
</g>
<!-- actor_UserBrowserApp_d2006ce1bb&#45;&gt;server_SpringBootApplication_0291419f72 -->
<g id="edge5" class="edge">
<title>actor_UserBrowserApp_d2006ce1bb&#45;&gt;server_SpringBootApplication_0291419f72</title>
<path fill="none" stroke="black" d="M566.67,-498.68C604.85,-491.87 655.63,-475.9 681,-438.4 698.75,-412.18 693.02,-396.45 681,-367.15 676.6,-356.43 669.64,-346.49 661.81,-337.68"/>
<polygon fill="black" stroke="black" points="664.58,-335.51 655.14,-330.69 659.51,-340.34 664.58,-335.51"/>
<text xml:space="preserve" text-anchor="middle" x="739.89" y="-412.75" font-family="Arial" font-size="12.00">(7) DF&#45;07: Share /</text>
<text xml:space="preserve" text-anchor="middle" x="739.89" y="-398.5" font-family="Arial" font-size="12.00">Revoke Access</text>
<text xml:space="preserve" text-anchor="middle" x="739.89" y="-384.25" font-family="Arial" font-size="12.00">Request</text>
</g>
<!-- actor_UserBrowserApp_d2006ce1bb&#45;&gt;server_SpringBootApplication_0291419f72 -->
<g id="edge6" class="edge">
<title>actor_UserBrowserApp_d2006ce1bb&#45;&gt;server_SpringBootApplication_0291419f72</title>
<path fill="none" stroke="black" d="M566.54,-499.87C640.66,-492.88 776.57,-475.26 806,-438.4 825.76,-413.66 824.24,-393.04 806,-367.15 776.87,-325.82 720.59,-309.15 676.3,-302.5"/>
<polygon fill="black" stroke="black" points="676.9,-299.05 666.53,-301.18 675.97,-305.99 676.9,-299.05"/>
<text xml:space="preserve" text-anchor="middle" x="870.5" y="-405.63" font-family="Arial" font-size="12.00">(8) DF&#45;08: Folder</text>
<text xml:space="preserve" text-anchor="middle" x="870.5" y="-391.38" font-family="Arial" font-size="12.00">Operation Request</text>
</g>
<!-- datastore_PostgreSQLDatabase_c76a0a7067 -->
<g id="node4" class="node">
<title>datastore_PostgreSQLDatabase_c76a0a7067</title>
<image xlink:href="C:\Users\pconceicao\AppData\Local\Programs\Python\Python314\Lib\site-packages\pytm\images\datastore_black.png" width="49.6px" height="36px" preserveAspectRatio="xMinYMin meet" x="413.2" y="-78.94"/>
<text xml:space="preserve" text-anchor="middle" x="373.88" y="-97.14" font-family="Arial" font-size="14.00">PostgreSQL</text>
<text xml:space="preserve" text-anchor="middle" x="373.88" y="-81.39" font-family="Arial" font-size="14.00">Database</text>
</g>
<!-- server_SpringBootApplication_0291419f72&#45;&gt;datastore_PostgreSQLDatabase_c76a0a7067 -->
<g id="edge8" class="edge">
<title>server_SpringBootApplication_0291419f72&#45;&gt;datastore_PostgreSQLDatabase_c76a0a7067</title>
<path fill="none" stroke="black" d="M550.73,-283.28C518.86,-273.36 482.33,-256.29 460.75,-227.38 430.68,-187.09 430.91,-125.48 434.18,-89.91"/>
<polygon fill="none" stroke="black" points="549.75,-286.64 560.33,-286.08 551.71,-279.92 549.75,-286.64"/>
<polygon fill="black" stroke="black" points="437.61,-90.74 435.21,-80.42 430.66,-89.99 437.61,-90.74"/>
<text xml:space="preserve" text-anchor="middle" x="518.88" y="-215.98" font-family="Arial" font-size="12.00">(10) DF&#45;10: Domain</text>
<text xml:space="preserve" text-anchor="middle" x="518.88" y="-201.73" font-family="Arial" font-size="12.00">Data Read / Write</text>
<text xml:space="preserve" text-anchor="middle" x="518.88" y="-187.48" font-family="Arial" font-size="12.00">(JDBC)</text>
<text xml:space="preserve" text-anchor="middle" x="518.88" y="-173.23" font-family="Arial" font-size="12.00"> &#160;&#160;&#160;(11) DF&#45;11: Domain</text>
<text xml:space="preserve" text-anchor="middle" x="518.88" y="-158.98" font-family="Arial" font-size="12.00">Data Query Results</text>
<text xml:space="preserve" text-anchor="middle" x="518.88" y="-144.73" font-family="Arial" font-size="12.00">(JDBC)</text>
</g>
<!-- datastore_PhysicalFileSystem_c6f87088c2 -->
<g id="node5" class="node">
<title>datastore_PhysicalFileSystem_c6f87088c2</title>
<image xlink:href="C:\Users\pconceicao\AppData\Local\Programs\Python\Python314\Lib\site-packages\pytm\images\datastore_black.png" width="49.6px" height="36px" preserveAspectRatio="xMinYMin meet" x="571.2" y="-78.94"/>
<text xml:space="preserve" text-anchor="middle" x="531.12" y="-61.14" font-family="Arial" font-size="14.00">Physical File</text>
<text xml:space="preserve" text-anchor="middle" x="531.12" y="-45.39" font-family="Arial" font-size="14.00">System</text>
</g>
<!-- server_SpringBootApplication_0291419f72&#45;&gt;datastore_PhysicalFileSystem_c6f87088c2 -->
<g id="edge9" class="edge">
<title>server_SpringBootApplication_0291419f72&#45;&gt;datastore_PhysicalFileSystem_c6f87088c2</title>
<path fill="none" stroke="black" d="M600.89,-234.86C600.56,-232.34 600.26,-229.84 600,-227.38 594.94,-179.5 594.79,-123.41 595.29,-90.37"/>
<polygon fill="none" stroke="black" points="597.39,-235.11 602.32,-244.5 604.32,-234.09 597.39,-235.11"/>
<polygon fill="black" stroke="black" points="598.79,-90.49 595.48,-80.42 591.79,-90.35 598.79,-90.49"/>
<text xml:space="preserve" text-anchor="middle" x="652.5" y="-215.98" font-family="Arial" font-size="12.00">(12) DF&#45;12: Write</text>
<text xml:space="preserve" text-anchor="middle" x="652.5" y="-201.73" font-family="Arial" font-size="12.00">Binary File (Java</text>
<text xml:space="preserve" text-anchor="middle" x="652.5" y="-187.48" font-family="Arial" font-size="12.00">NIO / OS I/O)</text>
<text xml:space="preserve" text-anchor="middle" x="652.5" y="-173.23" font-family="Arial" font-size="12.00"> &#160;&#160;&#160;(13) DF&#45;13: Read</text>
<text xml:space="preserve" text-anchor="middle" x="652.5" y="-158.98" font-family="Arial" font-size="12.00">Binary File (Java</text>
<text xml:space="preserve" text-anchor="middle" x="652.5" y="-144.73" font-family="Arial" font-size="12.00">NIO / OS I/O)</text>
</g>
<!-- actor_ExternalLogSystemELKSIEM_2c440ebe53 -->
<g id="node6" class="node">
<title>actor_ExternalLogSystemELKSIEM_2c440ebe53</title>
<polygon fill="none" stroke="black" points="839.94,-105.88 750.06,-105.88 750.06,-16 839.94,-16 839.94,-105.88"/>
<text xml:space="preserve" text-anchor="middle" x="795" y="-71.27" font-family="Arial" font-size="14.00">External Log</text>
<text xml:space="preserve" text-anchor="middle" x="795" y="-55.52" font-family="Arial" font-size="14.00">System (ELK /</text>
<text xml:space="preserve" text-anchor="middle" x="795" y="-39.77" font-family="Arial" font-size="14.00">SIEM)</text>
</g>
<!-- server_SpringBootApplication_0291419f72&#45;&gt;actor_ExternalLogSystemELKSIEM_2c440ebe53 -->
<g id="edge10" class="edge">
<title>server_SpringBootApplication_0291419f72&#45;&gt;actor_ExternalLogSystemELKSIEM_2c440ebe53</title>
<path fill="none" stroke="black" d="M659.56,-273.67C679.83,-262.04 702.64,-246.31 719,-227.38 746.69,-195.33 766.21,-151.51 778.54,-117.01"/>
<polygon fill="black" stroke="black" points="781.83,-118.19 781.79,-107.6 775.21,-115.91 781.83,-118.19"/>
<text xml:space="preserve" text-anchor="middle" x="822.61" y="-194.6" font-family="Arial" font-size="12.00">(14) DF&#45;14:</text>
<text xml:space="preserve" text-anchor="middle" x="822.61" y="-180.35" font-family="Arial" font-size="12.00">Forward Structured</text>
<text xml:space="preserve" text-anchor="middle" x="822.61" y="-166.1" font-family="Arial" font-size="12.00">Audit Logs (HTTPS)</text>
</g>
<!-- actor_Administrator_f8af758679 -->
<g id="node3" class="node">
<title>actor_Administrator_f8af758679</title>
<polygon fill="none" stroke="black" points="1164.57,-546.28 1081.43,-546.28 1081.43,-463.15 1164.57,-463.15 1164.57,-546.28"/>
<text xml:space="preserve" text-anchor="middle" x="1123" y="-499.29" font-family="Arial" font-size="14.00">Administrator</text>
</g>
<!-- actor_Administrator_f8af758679&#45;&gt;server_SpringBootApplication_0291419f72 -->
<g id="edge7" class="edge">
<title>actor_Administrator_f8af758679&#45;&gt;server_SpringBootApplication_0291419f72</title>
<path fill="none" stroke="black" d="M1081.03,-463.13C1045.97,-431.69 993.13,-389.81 939,-367.15 851.98,-330.74 743.55,-312.76 676.29,-304.51"/>
<polygon fill="black" stroke="black" points="676.89,-301.06 666.55,-303.36 676.06,-308.01 676.89,-301.06"/>
<text xml:space="preserve" text-anchor="middle" x="1099.55" y="-412.75" font-family="Arial" font-size="12.00">(9) DF&#45;09: Admin ù</text>
<text xml:space="preserve" text-anchor="middle" x="1099.55" y="-398.5" font-family="Arial" font-size="12.00">User Management</text>
<text xml:space="preserve" text-anchor="middle" x="1099.55" y="-384.25" font-family="Arial" font-size="12.00">Request</text>
</g>
</g>
</svg>
