<?xml version="1.0" encoding="UTF-8" standalone="no"?>
<!DOCTYPE svg PUBLIC "-//W3C//DTD SVG 1.1//EN"
 "http://www.w3.org/Graphics/SVG/1.1/DTD/svg11.dtd">
<!-- Generated by graphviz version 14.1.4 (20260321.0153)
 -->
<!-- Title: tm Pages: 1 -->
<svg width="330pt" height="652pt"
 viewBox="0.00 0.00 330.00 652.00" xmlns="http://www.w3.org/2000/svg" xmlns:xlink="http://www.w3.org/1999/xlink">
<g id="graph0" class="graph" transform="scale(1 1) rotate(0) translate(4 648.33)">
<title>tm</title>
<polygon fill="white" stroke="none" points="-4,4 -4,-648.33 325.92,-648.33 325.92,4 -4,4"/>
<g id="clust1" class="cluster">
<title>cluster_boundary_ExternalSystems_579e9aae81</title>
<polygon fill="none" stroke="#ee2c2c" stroke-dasharray="5,2" points="98,-8 98,-133.88 204,-133.88 204,-8 98,-8"/>
<text xml:space="preserve" text-anchor="start" x="112" y="-121.38" font-family="Arial" font-style="italic" font-size="10.00">External Systems</text>
</g>
<g id="clust2" class="cluster">
<title>cluster_boundary_InternetUntrusted_acf3059e70</title>
<polygon fill="none" stroke="#ee2c2c" stroke-dasharray="5,2" points="8,-503.7 8,-636.33 120,-636.33 120,-503.7 8,-503.7"/>
<text xml:space="preserve" text-anchor="start" x="19" y="-623.83" font-family="Arial" font-style="italic" font-size="10.00">Internet\n(Untrusted)</text>
</g>
<g id="clust3" class="cluster">
<title>cluster_boundary_InternetUntrustedAdmin_88f2d9c06f</title>
<polygon fill="none" stroke="#ee2c2c" stroke-dasharray="5,2" points="163,-510.45 163,-629.58 313,-629.58 313,-510.45 163,-510.45"/>
<text xml:space="preserve" text-anchor="start" x="170.88" y="-617.08" font-family="Arial" font-style="italic" font-size="10.00">Internet\n(Untrusted) ù\nAdmin</text>
</g>
<!-- actor_ExternalLogSystemELKSIEM_f8af758679 -->
<g id="node1" class="node">
<title>actor_ExternalLogSystemELKSIEM_f8af758679</title>
<polygon fill="none" stroke="black" points="195.94,-105.88 106.06,-105.88 106.06,-16 195.94,-16 195.94,-105.88"/>
<text xml:space="preserve" text-anchor="middle" x="151" y="-71.27" font-family="Arial" font-size="14.00">External Log</text>
<text xml:space="preserve" text-anchor="middle" x="151" y="-55.52" font-family="Arial" font-size="14.00">System (ELK /</text>
<text xml:space="preserve" text-anchor="middle" x="151" y="-39.77" font-family="Arial" font-size="14.00">SIEM)</text>
</g>
<!-- actor_UserBrowserApp_f2eb7a3ff7 -->
<g id="node2" class="node">
<title>actor_UserBrowserApp_f2eb7a3ff7</title>
<polygon fill="none" stroke="black" points="112.31,-608.33 15.69,-608.33 15.69,-511.7 112.31,-511.7 112.31,-608.33"/>
<text xml:space="preserve" text-anchor="middle" x="64" y="-562.46" font-family="Arial" font-size="14.00">User (Browser /</text>
<text xml:space="preserve" text-anchor="middle" x="64" y="-546.71" font-family="Arial" font-size="14.00">App)</text>
</g>
<!-- server_SecureFileManagementSystem_2c440ebe53 -->
<g id="node4" class="node">
<title>server_SecureFileManagementSystem_2c440ebe53</title>
<ellipse fill="none" stroke="black" cx="151" cy="-296.41" rx="93.78" ry="93.78"/>
<text xml:space="preserve" text-anchor="middle" x="151" y="-298.86" font-family="Arial" font-size="14.00">Secure File</text>
<text xml:space="preserve" text-anchor="middle" x="151" y="-283.11" font-family="Arial" font-size="14.00">Management System</text>
</g>
<!-- actor_UserBrowserApp_f2eb7a3ff7&#45;&gt;server_SecureFileManagementSystem_2c440ebe53 -->
<g id="edge1" class="edge">
<title>actor_UserBrowserApp_f2eb7a3ff7&#45;&gt;server_SecureFileManagementSystem_2c440ebe53</title>
<path fill="none" stroke="black" d="M47.23,-500.24C41.99,-471.62 40.11,-437.22 51.25,-408.2 56.66,-394.1 64.79,-380.68 74.11,-368.35"/>
<polygon fill="none" stroke="black" points="43.76,-500.71 49.17,-509.82 50.62,-499.32 43.76,-500.71"/>
<polygon fill="black" stroke="black" points="76.66,-370.76 80.14,-360.76 71.18,-366.41 76.66,-370.76"/>
<text xml:space="preserve" text-anchor="middle" x="99.62" y="-475.17" font-family="Arial" font-size="12.00">(1) User Requests</text>
<text xml:space="preserve" text-anchor="middle" x="99.62" y="-460.92" font-family="Arial" font-size="12.00">(HTTPS/TLS)</text>
<text xml:space="preserve" text-anchor="middle" x="99.62" y="-446.67" font-family="Arial" font-size="12.00"> &#160;&#160;&#160;(2) System</text>
<text xml:space="preserve" text-anchor="middle" x="99.62" y="-432.42" font-family="Arial" font-size="12.00">Responses</text>
<text xml:space="preserve" text-anchor="middle" x="99.62" y="-418.17" font-family="Arial" font-size="12.00">(HTTPS/TLS)</text>
</g>
<!-- actor_Administrator_d2006ce1bb -->
<g id="node3" class="node">
<title>actor_Administrator_d2006ce1bb</title>
<polygon fill="none" stroke="black" points="279.56,-601.58 196.44,-601.58 196.44,-518.45 279.56,-518.45 279.56,-601.58"/>
<text xml:space="preserve" text-anchor="middle" x="238" y="-554.59" font-family="Arial" font-size="14.00">Administrator</text>
</g>
<!-- actor_Administrator_d2006ce1bb&#45;&gt;server_SecureFileManagementSystem_2c440ebe53 -->
<g id="edge2" class="edge">
<title>actor_Administrator_d2006ce1bb&#45;&gt;server_SecureFileManagementSystem_2c440ebe53</title>
<path fill="none" stroke="black" d="M220.82,-507.34C210.3,-475.71 196.49,-434.19 183.93,-396.43"/>
<polygon fill="none" stroke="black" points="217.45,-508.32 223.93,-516.7 224.09,-506.11 217.45,-508.32"/>
<polygon fill="black" stroke="black" points="187.38,-395.71 180.9,-387.32 180.74,-397.92 187.38,-395.71"/>
<text xml:space="preserve" text-anchor="middle" x="268.29" y="-482.3" font-family="Arial" font-size="12.00">(3) Admin Requests</text>
<text xml:space="preserve" text-anchor="middle" x="268.29" y="-468.05" font-family="Arial" font-size="12.00">(HTTPS/TLS + JWT</text>
<text xml:space="preserve" text-anchor="middle" x="268.29" y="-453.8" font-family="Arial" font-size="12.00">Admin role)</text>
<text xml:space="preserve" text-anchor="middle" x="268.29" y="-439.55" font-family="Arial" font-size="12.00"> &#160;&#160;&#160;(4) Admin</text>
<text xml:space="preserve" text-anchor="middle" x="268.29" y="-425.3" font-family="Arial" font-size="12.00">Responses</text>
<text xml:space="preserve" text-anchor="middle" x="268.29" y="-411.05" font-family="Arial" font-size="12.00">(HTTPS/TLS)</text>
</g>
<!-- server_SecureFileManagementSystem_2c440ebe53&#45;&gt;actor_ExternalLogSystemELKSIEM_f8af758679 -->
<g id="edge3" class="edge">
<title>server_SecureFileManagementSystem_2c440ebe53&#45;&gt;actor_ExternalLogSystemELKSIEM_f8af758679</title>
<path fill="none" stroke="black" d="M151,-202.13C151,-173.38 151,-142.66 151,-117.32"/>
<polygon fill="black" stroke="black" points="154.5,-117.59 151,-107.59 147.5,-117.59 154.5,-117.59"/>
<text xml:space="preserve" text-anchor="middle" x="187.75" y="-173.23" font-family="Arial" font-size="12.00">(5) Structured</text>
<text xml:space="preserve" text-anchor="middle" x="187.75" y="-158.98" font-family="Arial" font-size="12.00">Audit Logs</text>
<text xml:space="preserve" text-anchor="middle" x="187.75" y="-144.73" font-family="Arial" font-size="12.00">(HTTPS/TLS)</text>
</g>
</g>
</svg>
