<?xml version="1.0" encoding="UTF-8" standalone="no"?>
<!DOCTYPE svg PUBLIC "-//W3C//DTD SVG 1.1//EN"
 "http://www.w3.org/Graphics/SVG/1.1/DTD/svg11.dtd">
<!-- Generated by graphviz version 14.1.4 (20260321.0153)
 -->
<!-- Title: tm Pages: 1 -->
<svg width="1395pt" height="907pt"
 viewBox="0.00 0.00 1395.00 907.00" xmlns="http://www.w3.org/2000/svg" xmlns:xlink="http://www.w3.org/1999/xlink">
<g id="graph0" class="graph" transform="scale(1 1) rotate(0) translate(4 903.32)">
<title>tm</title>
<polygon fill="white" stroke="none" points="-4,4 -4,-903.32 1391.15,-903.32 1391.15,4 -4,4"/>
<g id="clust1" class="cluster">
<title>cluster_boundary_TrustBoundaryAInternetApplication_acf3059e70</title>
<polygon fill="none" stroke="#ee2c2c" stroke-dasharray="5,2" points="8,-373.48 8,-891.32 523,-891.32 523,-373.48 8,-373.48"/>
<text xml:space="preserve" text-anchor="start" x="172.5" y="-878.82" font-family="Arial" font-style="italic" font-size="10.00">Trust Boundary A ù\nInternet /\nApplication</text>
</g>
<g id="clust2" class="cluster">
<title>cluster_boundary_TrustBoundaryBApplicationInfrastructure_88f2d9c06f</title>
<polygon fill="none" stroke="#ee2c2c" stroke-dasharray="5,2" points="807,-8 807,-575.15 1329,-575.15 1329,-8 807,-8"/>
<text xml:space="preserve" text-anchor="start" x="961.88" y="-562.65" font-family="Arial" font-style="italic" font-size="10.00">Trust Boundary B ù\nApplication /\nInfrastructure</text>
</g>
<g id="clust3" class="cluster">
<title>cluster_boundary_TrustBoundaryCApplicationExternalLogSystem_579e9aae81</title>
<polygon fill="none" stroke="#ee2c2c" stroke-dasharray="5,2" points="531,-406.41 531,-552.29 799,-552.29 799,-406.41 531,-406.41"/>
<text xml:space="preserve" text-anchor="start" x="539" y="-539.79" font-family="Arial" font-style="italic" font-size="10.00">Trust Boundary C ù\nApplication /\nExternal Log\nSystem</text>
</g>
<!-- actor_UserBrowserApp_f2eb7a3ff7 -->
<g id="node1" class="node">
<title>actor_UserBrowserApp_f2eb7a3ff7</title>
<polygon fill="none" stroke="black" points="296.31,-827.55 199.69,-827.55 199.69,-730.92 296.31,-730.92 296.31,-827.55"/>
<text xml:space="preserve" text-anchor="middle" x="248" y="-781.69" font-family="Arial" font-size="14.00">User (Browser /</text>
<text xml:space="preserve" text-anchor="middle" x="248" y="-765.94" font-family="Arial" font-size="14.00">App)</text>
</g>
<!-- server_PFileRequestHandler_f8af758679 -->
<g id="node2" class="node">
<title>server_PFileRequestHandler_f8af758679</title>
<ellipse fill="none" stroke="black" cx="412" cy="-459.35" rx="77.87" ry="77.87"/>
<text xml:space="preserve" text-anchor="middle" x="412" y="-461.8" font-family="Arial" font-size="14.00">P2.1 File Request</text>
<text xml:space="preserve" text-anchor="middle" x="412" y="-446.05" font-family="Arial" font-size="14.00">Handler</text>
</g>
<!-- actor_UserBrowserApp_f2eb7a3ff7&#45;&gt;server_PFileRequestHandler_f8af758679 -->
<g id="edge1" class="edge">
<title>actor_UserBrowserApp_f2eb7a3ff7&#45;&gt;server_PFileRequestHandler_f8af758679</title>
<path fill="none" stroke="black" d="M231.46,-730.44C220.15,-689.07 211.08,-628.87 235,-583.15 255.29,-544.38 294,-515.4 330.06,-495.36"/>
<polygon fill="black" stroke="black" points="331.66,-498.47 338.81,-490.66 328.35,-492.31 331.66,-498.47"/>
<text xml:space="preserve" text-anchor="middle" x="278.5" y="-657.25" font-family="Arial" font-size="12.00">(1) DF&#45;L2&#45;01:</text>
<text xml:space="preserve" text-anchor="middle" x="278.5" y="-643" font-family="Arial" font-size="12.00">Upload Request</text>
<text xml:space="preserve" text-anchor="middle" x="278.5" y="-628.75" font-family="Arial" font-size="12.00">(POST</text>
<text xml:space="preserve" text-anchor="middle" x="278.5" y="-614.5" font-family="Arial" font-size="12.00">/files/upload)</text>
</g>
<!-- actor_UserBrowserApp_f2eb7a3ff7&#45;&gt;server_PFileRequestHandler_f8af758679 -->
<g id="edge9" class="edge">
<title>actor_UserBrowserApp_f2eb7a3ff7&#45;&gt;server_PFileRequestHandler_f8af758679</title>
<path fill="none" stroke="black" d="M304.9,-733.93C316.4,-722.89 327.54,-710.39 336,-697.15 364.99,-651.76 383.78,-594.38 395.42,-547.47"/>
<polygon fill="none" stroke="black" points="302.57,-731.31 297.6,-740.66 307.32,-736.45 302.57,-731.31"/>
<polygon fill="black" stroke="black" points="398.79,-548.41 397.73,-537.87 391.98,-546.77 398.79,-548.41"/>
<text xml:space="preserve" text-anchor="middle" x="436.15" y="-685.75" font-family="Arial" font-size="12.00">(10) DF&#45;L2&#45;10:</text>
<text xml:space="preserve" text-anchor="middle" x="436.15" y="-671.5" font-family="Arial" font-size="12.00">Download Request</text>
<text xml:space="preserve" text-anchor="middle" x="436.15" y="-657.25" font-family="Arial" font-size="12.00">(GET</text>
<text xml:space="preserve" text-anchor="middle" x="436.15" y="-643" font-family="Arial" font-size="12.00">/files/{fileId})</text>
<text xml:space="preserve" text-anchor="middle" x="436.15" y="-628.75" font-family="Arial" font-size="12.00"> &#160;&#160;&#160;(14) DF&#45;L2&#45;14:</text>
<text xml:space="preserve" text-anchor="middle" x="436.15" y="-614.5" font-family="Arial" font-size="12.00">File Download</text>
<text xml:space="preserve" text-anchor="middle" x="436.15" y="-600.25" font-family="Arial" font-size="12.00">Response</text>
<text xml:space="preserve" text-anchor="middle" x="436.15" y="-586" font-family="Arial" font-size="12.00">(attachment)</text>
</g>
<!-- actor_UserBrowserApp_f2eb7a3ff7&#45;&gt;server_PFileRequestHandler_f8af758679 -->
<g id="edge12" class="edge">
<title>actor_UserBrowserApp_f2eb7a3ff7&#45;&gt;server_PFileRequestHandler_f8af758679</title>
<path fill="none" stroke="black" d="M199.3,-761.56C170.28,-748.82 135.87,-728.1 118.75,-697.15 94.23,-652.82 90.68,-625.33 118.75,-583.15 163.93,-515.25 254.67,-484.82 323.31,-471.23"/>
<polygon fill="black" stroke="black" points="323.89,-474.68 333.07,-469.39 322.59,-467.8 323.89,-474.68"/>
<text xml:space="preserve" text-anchor="middle" x="160.38" y="-657.25" font-family="Arial" font-size="12.00">(15) DF&#45;L2&#45;15:</text>
<text xml:space="preserve" text-anchor="middle" x="160.38" y="-643" font-family="Arial" font-size="12.00">Delete Request</text>
<text xml:space="preserve" text-anchor="middle" x="160.38" y="-628.75" font-family="Arial" font-size="12.00">(DELETE</text>
<text xml:space="preserve" text-anchor="middle" x="160.38" y="-614.5" font-family="Arial" font-size="12.00">/files/{fileId})</text>
</g>
<!-- server_PFileStoreJavaNIOOSIO_2c440ebe53 -->
<g id="node4" class="node">
<title>server_PFileStoreJavaNIOOSIO_2c440ebe53</title>
<ellipse fill="none" stroke="black" cx="906" cy="-459.35" rx="67.8" ry="67.8"/>
<text xml:space="preserve" text-anchor="middle" x="906" y="-469.68" font-family="Arial" font-size="14.00">P2.2 File Store</text>
<text xml:space="preserve" text-anchor="middle" x="906" y="-453.93" font-family="Arial" font-size="14.00">(Java NIO / OS</text>
<text xml:space="preserve" text-anchor="middle" x="906" y="-438.18" font-family="Arial" font-size="14.00">I/O)</text>
</g>
<!-- server_PFileRequestHandler_f8af758679&#45;&gt;server_PFileStoreJavaNIOOSIO_2c440ebe53 -->
<g id="edge3" class="edge">
<title>server_PFileRequestHandler_f8af758679&#45;&gt;server_PFileStoreJavaNIOOSIO_2c440ebe53</title>
<path fill="none" stroke="black" d="M451.48,-526.8C477.43,-563.94 515.11,-606.46 561.38,-626.41 667.78,-672.29 722.56,-642.29 817,-575.15 835.04,-562.33 851.12,-544.79 864.49,-527.24"/>
<polygon fill="black" stroke="black" points="867.22,-529.43 870.33,-519.3 861.58,-525.28 867.22,-529.43"/>
<text xml:space="preserve" text-anchor="middle" x="612" y="-650.13" font-family="Arial" font-size="12.00">(4) DF&#45;L2&#45;04:</text>
<text xml:space="preserve" text-anchor="middle" x="612" y="-635.88" font-family="Arial" font-size="12.00">Validated Upload ù</text>
<text xml:space="preserve" text-anchor="middle" x="612" y="-621.63" font-family="Arial" font-size="12.00">File Bytes</text>
</g>
<!-- server_PMetadataStoreJDBCPostgreSQL_0291419f72 -->
<g id="node5" class="node">
<title>server_PMetadataStoreJDBCPostgreSQL_0291419f72</title>
<ellipse fill="none" stroke="black" cx="887" cy="-195.37" rx="64.62" ry="64.62"/>
<text xml:space="preserve" text-anchor="middle" x="887" y="-205.69" font-family="Arial" font-size="14.00">P2.3 Metadata</text>
<text xml:space="preserve" text-anchor="middle" x="887" y="-189.94" font-family="Arial" font-size="14.00">Store (JDBC /</text>
<text xml:space="preserve" text-anchor="middle" x="887" y="-174.19" font-family="Arial" font-size="14.00">PostgreSQL)</text>
</g>
<!-- server_PFileRequestHandler_f8af758679&#45;&gt;server_PMetadataStoreJDBCPostgreSQL_0291419f72 -->
<g id="edge10" class="edge">
<title>server_PFileRequestHandler_f8af758679&#45;&gt;server_PMetadataStoreJDBCPostgreSQL_0291419f72</title>
<path fill="none" stroke="black" d="M467.06,-403.96C481.12,-392.45 496.86,-381.41 513,-373.48 531.78,-364.26 539.29,-370.51 559,-363.48 654.62,-329.37 757.86,-273.25 822.45,-235.57"/>
<polygon fill="black" stroke="black" points="823.92,-238.76 830.78,-230.68 820.38,-232.72 823.92,-238.76"/>
<text xml:space="preserve" text-anchor="middle" x="790.53" y="-344.96" font-family="Arial" font-size="12.00">(11) DF&#45;L2&#45;11:</text>
<text xml:space="preserve" text-anchor="middle" x="790.53" y="-330.71" font-family="Arial" font-size="12.00">Request</text>
<text xml:space="preserve" text-anchor="middle" x="790.53" y="-316.46" font-family="Arial" font-size="12.00">FileVersion</text>
<text xml:space="preserve" text-anchor="middle" x="790.53" y="-302.21" font-family="Arial" font-size="12.00">(PhysicalOsPath +</text>
<text xml:space="preserve" text-anchor="middle" x="790.53" y="-287.96" font-family="Arial" font-size="12.00">FileHash)</text>
</g>
<!-- datastore_PostgreSQLDatabase_c6f87088c2 -->
<g id="node6" class="node">
<title>datastore_PostgreSQLDatabase_c6f87088c2</title>
<image xlink:href="C:\Users\pconceicao\AppData\Local\Programs\Python\Python314\Lib\site-packages\pytm\images\datastore_black.png" width="49.6px" height="36px" preserveAspectRatio="xMinYMin meet" x="839.2" y="-52"/>
<text xml:space="preserve" text-anchor="middle" x="799.88" y="-70.2" font-family="Arial" font-size="14.00">PostgreSQL</text>
<text xml:space="preserve" text-anchor="middle" x="799.88" y="-54.45" font-family="Arial" font-size="14.00">Database</text>
</g>
<!-- server_PFileRequestHandler_f8af758679&#45;&gt;datastore_PostgreSQLDatabase_c6f87088c2 -->
<g id="edge2" class="edge">
<title>server_PFileRequestHandler_f8af758679&#45;&gt;datastore_PostgreSQLDatabase_c6f87088c2</title>
<path fill="none" stroke="black" d="M461.69,-384.63C485.53,-350.99 515.32,-311.31 545,-277.98 608.78,-206.36 626.02,-188.28 702.75,-130.75 743.12,-100.48 793.7,-71.77 827.34,-53.83"/>
<polygon fill="none" stroke="black" points="458.9,-382.52 456,-392.71 464.62,-386.55 458.9,-382.52"/>
<polygon fill="black" stroke="black" points="828.66,-57.09 835.87,-49.32 825.39,-50.9 828.66,-57.09"/>
<text xml:space="preserve" text-anchor="middle" x="744.38" y="-240.97" font-family="Arial" font-size="12.00">(2) DF&#45;L2&#45;02:</text>
<text xml:space="preserve" text-anchor="middle" x="744.38" y="-226.72" font-family="Arial" font-size="12.00">AccessShare +</text>
<text xml:space="preserve" text-anchor="middle" x="744.38" y="-212.47" font-family="Arial" font-size="12.00">StorageQuota</text>
<text xml:space="preserve" text-anchor="middle" x="744.38" y="-198.22" font-family="Arial" font-size="12.00">Lookup (JDBC)</text>
<text xml:space="preserve" text-anchor="middle" x="744.38" y="-183.97" font-family="Arial" font-size="12.00"> &#160;&#160;&#160;(3) DF&#45;L2&#45;03:</text>
<text xml:space="preserve" text-anchor="middle" x="744.38" y="-169.72" font-family="Arial" font-size="12.00">AccessShare +</text>
<text xml:space="preserve" text-anchor="middle" x="744.38" y="-155.47" font-family="Arial" font-size="12.00">Quota Result</text>
<text xml:space="preserve" text-anchor="middle" x="744.38" y="-141.22" font-family="Arial" font-size="12.00">(JDBC)</text>
</g>
<!-- server_PAuditLogService_c76a0a7067 -->
<g id="node3" class="node">
<title>server_PAuditLogService_c76a0a7067</title>
<ellipse fill="none" stroke="black" cx="451" cy="-779.24" rx="64.09" ry="64.09"/>
<text xml:space="preserve" text-anchor="middle" x="451" y="-781.69" font-family="Arial" font-size="14.00">P2.4 Audit Log</text>
<text xml:space="preserve" text-anchor="middle" x="451" y="-765.94" font-family="Arial" font-size="14.00">Service</text>
</g>
<!-- actor_ExternalLogSystemELKSIEM_d2006ce1bb -->
<g id="node8" class="node">
<title>actor_ExternalLogSystemELKSIEM_d2006ce1bb</title>
<polygon fill="none" stroke="black" points="765.94,-504.29 676.06,-504.29 676.06,-414.41 765.94,-414.41 765.94,-504.29"/>
<text xml:space="preserve" text-anchor="middle" x="721" y="-469.68" font-family="Arial" font-size="14.00">External Log</text>
<text xml:space="preserve" text-anchor="middle" x="721" y="-453.93" font-family="Arial" font-size="14.00">System (ELK /</text>
<text xml:space="preserve" text-anchor="middle" x="721" y="-438.18" font-family="Arial" font-size="14.00">SIEM)</text>
</g>
<!-- server_PAuditLogService_c76a0a7067&#45;&gt;actor_ExternalLogSystemELKSIEM_d2006ce1bb -->
<g id="edge8" class="edge">
<title>server_PAuditLogService_c76a0a7067&#45;&gt;actor_ExternalLogSystemELKSIEM_d2006ce1bb</title>
<path fill="none" stroke="black" d="M514.54,-770.11C562.36,-760.66 625.97,-740.37 664,-697.15 708.02,-647.13 719.44,-568.97 721.72,-516.26"/>
<polygon fill="black" stroke="black" points="725.22,-516.38 722.04,-506.27 718.22,-516.16 725.22,-516.38"/>
<text xml:space="preserve" text-anchor="middle" x="762.15" y="-650.13" font-family="Arial" font-size="12.00">(9) DF&#45;L2&#45;09:</text>
<text xml:space="preserve" text-anchor="middle" x="762.15" y="-635.88" font-family="Arial" font-size="12.00">Structured Audit</text>
<text xml:space="preserve" text-anchor="middle" x="762.15" y="-621.63" font-family="Arial" font-size="12.00">Log (HTTPS/TLS)</text>
</g>
<!-- server_PFileStoreJavaNIOOSIO_2c440ebe53&#45;&gt;server_PMetadataStoreJDBCPostgreSQL_0291419f72 -->
<g id="edge5" class="edge">
<title>server_PFileStoreJavaNIOOSIO_2c440ebe53&#45;&gt;server_PMetadataStoreJDBCPostgreSQL_0291419f72</title>
<path fill="none" stroke="black" d="M882.03,-395.52C878.91,-384.97 876.2,-374.02 874.5,-363.48 869.62,-333.31 870.85,-299.76 874,-270.68"/>
<polygon fill="black" stroke="black" points="877.46,-271.2 875.17,-260.86 870.51,-270.38 877.46,-271.2"/>
<text xml:space="preserve" text-anchor="middle" x="921.75" y="-330.71" font-family="Arial" font-size="12.00">(6) DF&#45;L2&#45;06: File</text>
<text xml:space="preserve" text-anchor="middle" x="921.75" y="-316.46" font-family="Arial" font-size="12.00">Metadata +</text>
<text xml:space="preserve" text-anchor="middle" x="921.75" y="-302.21" font-family="Arial" font-size="12.00">FileHash</text>
</g>
<!-- datastore_PhysicalFileSystemsrvfiles_9345ab4c19 -->
<g id="node7" class="node">
<title>datastore_PhysicalFileSystemsrvfiles_9345ab4c19</title>
<image xlink:href="C:\Users\pconceicao\AppData\Local\Programs\Python\Python314\Lib\site-packages\pytm\images\datastore_black.png" width="49.6px" height="36px" preserveAspectRatio="xMinYMin meet" x="1206.2" y="-213.365"/>
<text xml:space="preserve" text-anchor="middle" x="1166.12" y="-247.32" font-family="Arial" font-size="14.00">Physical File</text>
<text xml:space="preserve" text-anchor="middle" x="1166.12" y="-231.57" font-family="Arial" font-size="14.00">System</text>
<text xml:space="preserve" text-anchor="middle" x="1166.12" y="-215.82" font-family="Arial" font-size="14.00">(/srv/files/)</text>
</g>
<!-- server_PFileStoreJavaNIOOSIO_2c440ebe53&#45;&gt;datastore_PhysicalFileSystemsrvfiles_9345ab4c19 -->
<g id="edge4" class="edge">
<title>server_PFileStoreJavaNIOOSIO_2c440ebe53&#45;&gt;datastore_PhysicalFileSystemsrvfiles_9345ab4c19</title>
<path fill="none" stroke="black" d="M980.88,-433.21C1021.02,-417.34 1069.75,-394.02 1107,-363.48 1156.33,-323.04 1196.6,-258.88 1216.84,-222.97"/>
<polygon fill="none" stroke="black" points="979.81,-429.87 971.75,-436.75 982.34,-436.4 979.81,-429.87"/>
<polygon fill="black" stroke="black" points="1219.73,-224.97 1221.51,-214.53 1213.61,-221.59 1219.73,-224.97"/>
<text xml:space="preserve" text-anchor="middle" x="1226.55" y="-352.08" font-family="Arial" font-size="12.00">(5) DF&#45;L2&#45;05:</text>
<text xml:space="preserve" text-anchor="middle" x="1226.55" y="-337.83" font-family="Arial" font-size="12.00">Write Binary File</text>
<text xml:space="preserve" text-anchor="middle" x="1226.55" y="-323.58" font-family="Arial" font-size="12.00">(Java NIO)</text>
<text xml:space="preserve" text-anchor="middle" x="1226.55" y="-309.33" font-family="Arial" font-size="12.00"> &#160;&#160;&#160;(13) DF&#45;L2&#45;13:</text>
<text xml:space="preserve" text-anchor="middle" x="1226.55" y="-295.08" font-family="Arial" font-size="12.00">Read Binary File</text>
<text xml:space="preserve" text-anchor="middle" x="1226.55" y="-280.83" font-family="Arial" font-size="12.00">(Java NIO)</text>
</g>
<!-- server_PMetadataStoreJDBCPostgreSQL_0291419f72&#45;&gt;server_PAuditLogService_c76a0a7067 -->
<g id="edge7" class="edge">
<title>server_PMetadataStoreJDBCPostgreSQL_0291419f72&#45;&gt;server_PAuditLogService_c76a0a7067</title>
<path fill="none" stroke="black" d="M949.77,-212.02C1006.53,-225.83 1092.52,-245.89 1168,-259.98 1194.94,-265.01 1272.09,-257.24 1290,-277.98 1314.83,-306.75 1306.93,-329.46 1290,-363.48 1143.37,-658.13 703.53,-746.17 526.27,-770.08"/>
<polygon fill="black" stroke="black" points="525.94,-766.59 516.48,-771.37 526.85,-773.53 525.94,-766.59"/>
<text xml:space="preserve" text-anchor="middle" x="1335.4" y="-462.2" font-family="Arial" font-size="12.00">(8) DF&#45;L2&#45;08:</text>
<text xml:space="preserve" text-anchor="middle" x="1335.4" y="-447.95" font-family="Arial" font-size="12.00">Upload Audit Event</text>
</g>
<!-- server_PMetadataStoreJDBCPostgreSQL_0291419f72&#45;&gt;server_PFileStoreJavaNIOOSIO_2c440ebe53 -->
<g id="edge11" class="edge">
<title>server_PMetadataStoreJDBCPostgreSQL_0291419f72&#45;&gt;server_PFileStoreJavaNIOOSIO_2c440ebe53</title>
<path fill="none" stroke="black" d="M942.04,-229.62C958.32,-242.51 974.14,-258.82 983,-277.98 998.95,-312.47 995.7,-327.67 983,-363.48 978.08,-377.34 970.18,-390.65 961.27,-402.7"/>
<polygon fill="black" stroke="black" points="958.62,-400.41 955.23,-410.45 964.14,-404.72 958.62,-400.41"/>
<text xml:space="preserve" text-anchor="middle" x="1041.4" y="-330.71" font-family="Arial" font-size="12.00">(12) DF&#45;L2&#45;12:</text>
<text xml:space="preserve" text-anchor="middle" x="1041.4" y="-316.46" font-family="Arial" font-size="12.00">PhysicalOsPath +</text>
<text xml:space="preserve" text-anchor="middle" x="1041.4" y="-302.21" font-family="Arial" font-size="12.00">FileHash</text>
</g>
<!-- server_PMetadataStoreJDBCPostgreSQL_0291419f72&#45;&gt;datastore_PostgreSQLDatabase_c6f87088c2 -->
<g id="edge6" class="edge">
<title>server_PMetadataStoreJDBCPostgreSQL_0291419f72&#45;&gt;datastore_PostgreSQLDatabase_c6f87088c2</title>
<path fill="none" stroke="black" d="M877.84,-130.92C874.45,-107.42 870.78,-81.96 868.07,-63.18"/>
<polygon fill="black" stroke="black" points="871.55,-62.78 866.65,-53.38 864.62,-63.78 871.55,-62.78"/>
<text xml:space="preserve" text-anchor="middle" x="926.56" y="-101.35" font-family="Arial" font-size="12.00">(7) DF&#45;L2&#45;07:</text>
<text xml:space="preserve" text-anchor="middle" x="926.56" y="-87.1" font-family="Arial" font-size="12.00">INSERT File +</text>
<text xml:space="preserve" text-anchor="middle" x="926.56" y="-72.85" font-family="Arial" font-size="12.00">FileVersion (JDBC)</text>
</g>
</g>
</svg>
